<?xml version="1.0" encoding="UTF-8" standalone="no"?>
<!-- Created with Inkscape (http://www.inkscape.org/) -->

<svg
   width="200mm"
   height="284.423mm"
   viewBox="0 0 200 284.423"
   version="1.1"
   id="svg1548"
   inkscape:version="1.2.2 (732a01da63, 2022-12-09)"
   sodipodi:docname="bcc_logo_border_less.svg"
   xmlns:inkscape="http://www.inkscape.org/namespaces/inkscape"
   xmlns:sodipodi="http://sodipodi.sourceforge.net/DTD/sodipodi-0.dtd"
   xmlns="http://www.w3.org/2000/svg"
   xmlns:svg="http://www.w3.org/2000/svg">
  <sodipodi:namedview
     id="namedview1550"
     pagecolor="#ffffff"
     bordercolor="#000000"
     borderopacity="0.25"
     inkscape:showpageshadow="2"
     inkscape:pageopacity="0.0"
     inkscape:pagecheckerboard="0"
     inkscape:deskcolor="#d1d1d1"
     inkscape:document-units="mm"
     showgrid="false"
     inkscape:zoom="0.45014485"
     inkscape:cx="204.37866"
     inkscape:cy="799.74256"
     inkscape:window-width="1920"
     inkscape:window-height="1057"
     inkscape:window-x="-8"
     inkscape:window-y="-8"
     inkscape:window-maximized="1"
     inkscape:current-layer="layer1" />
  <defs
     id="defs1545">
    <linearGradient
       x1="0"
       y1="0"
       x2="1"
       y2="0"
       gradientUnits="userSpaceOnUse"
       gradientTransform="matrix(542.48486,-574.87201,-574.87201,-542.48486,4480.7822,4240.3198)"
       spreadMethod="pad"
       id="linearGradient1148">
      <stop
         style="stop-opacity:1;stop-color:#2bb673"
         offset="0"
         id="stop1144" />
      <stop
         style="stop-opacity:1;stop-color:#2a3890"
         offset="1"
         id="stop1146" />
    </linearGradient>
    <linearGradient
       x1="0"
       y1="0"
       x2="1"
       y2="0"
       gradientUnits="userSpaceOnUse"
       gradientTransform="matrix(542.48486,-574.87201,-574.87201,-542.48486,4116.665,3990.5156)"
       spreadMethod="pad"
       id="linearGradient1168">
      <stop
         style="stop-opacity:1;stop-color:#2bb673"
         offset="0"
         id="stop1164" />
      <stop
         style="stop-opacity:1;stop-color:#2a3890"
         offset="1"
         id="stop1166" />
    </linearGradient>
    <linearGradient
       x1="0"
       y1="0"
       x2="1"
       y2="0"
       gradientUnits="userSpaceOnUse"
       gradientTransform="matrix(542.48486,-574.87201,-574.87201,-542.48486,4225.3716,4093.0984)"
       spreadMethod="pad"
       id="linearGradient1188">
      <stop
         style="stop-opacity:1;stop-color:#2bb673"
         offset="0"
         id="stop1184" />
      <stop
         style="stop-opacity:1;stop-color:#2a3890"
         offset="1"
         id="stop1186" />
    </linearGradient>
    <linearGradient
       x1="0"
       y1="0"
       x2="1"
       y2="0"
       gradientUnits="userSpaceOnUse"
       gradientTransform="matrix(542.48486,-574.87201,-574.87201,-542.48486,4317.4771,4180.0146)"
       spreadMethod="pad"
       id="linearGradient1208">
      <stop
         style="stop-opacity:1;stop-color:#2bb673"
         offset="0"
         id="stop1204" />
      <stop
         style="stop-opacity:1;stop-color:#2a3890"
         offset="1"
         id="stop1206" />
    </linearGradient>
  </defs>
  <g
     inkscape:label="Layer 1"
     inkscape:groupmode="layer"
     id="layer1">
    <g
       id="g1969"
       transform="matrix(1.1204897,0,0,1.0644652,-1.2463015,-0.52965177)">
      <g
         id="g1132"
         transform="matrix(0.35277777,0,0,-0.35277777,-1530.8781,1533.8204)">
        <g
           id="g1134">
          <g
             id="g1140">
            <g
               id="g1142">
              <path
                 d="m 4739.059,4345.355 -312.522,-96.712 c -9.895,-3.062 -16.546,-12.081 -16.546,-22.44 v 0 -22.168 l -27.199,-6.623 c -10.558,-2.571 -17.933,-11.956 -17.933,-22.824 v 0 -130.785 c 0,-11.953 8.955,-21.988 20.831,-23.34 v 0 l 303.879,-34.62 c 2.999,-0.341 4.281,-2.511 4.693,-3.429 v 0 c 0.412,-0.917 1.181,-3.317 -0.554,-5.785 v 0 l -12.326,-17.516 -231.46,36.557 c -7.133,1.127 -14.271,-1.036 -19.581,-5.931 v 0 l -36.391,-33.534 c -6.3,-5.808 -8.902,-14.255 -6.958,-22.6 v 0 c 1.943,-8.347 8.008,-14.777 16.228,-17.204 v 0 l 207.103,-61.15 c 2.202,-0.648 4.442,-0.963 6.657,-0.963 v 0 c 7.507,0 14.725,3.609 19.204,9.975 v 0 l 53.292,75.736 52.862,-8.347 c 6.799,-1.075 13.693,0.874 18.925,5.343 v 0 c 5.23,4.47 8.231,10.977 8.231,17.858 v 0 68.98 l 31.305,-2.837 c 6.553,-0.595 13.101,1.614 17.962,6.052 v 0 c 4.859,4.44 7.646,10.76 7.646,17.342 v 0 231.15 c 0,7.256 -3.272,13.989 -8.978,18.472 v 0 c -5.704,4.483 -13.019,6.068 -20.071,4.351 v 0 l -27.864,-6.785 v 31.339 c 0,7.541 -3.481,14.431 -9.552,18.907 v 0 c -4.114,3.034 -8.94,4.603 -13.866,4.603 v 0 c -2.338,0 -4.699,-0.354 -7.017,-1.072 m -311.45,-119.152 c 0,2.589 1.662,4.845 4.138,5.61 v 0 l 312.52,96.714 c 0.58,0.18 1.17,0.266 1.753,0.266 v 0 c 1.231,0 2.438,-0.391 3.467,-1.149 v 0 c 1.519,-1.121 2.388,-2.842 2.388,-4.727 v 0 -35.628 l -324.266,-78.964 z m 374.779,-187.66 -32.894,2.979 v 231.923 l 32.033,7.803 c 2.411,0.587 4.181,-0.431 5.018,-1.091 v 0 c 0.838,-0.657 2.243,-2.133 2.243,-4.617 v 0 -231.15 c 0,-2.251 -1.198,-3.683 -1.91,-4.335 v 0 c -0.654,-0.597 -1.991,-1.537 -3.93,-1.537 v 0 c -0.181,0 -0.368,0.01 -0.56,0.025 m -369.435,33.452 c -3.046,0.276 -5.344,2.792 -5.344,5.849 v 0 112.347 l 324.266,78.965 v -226.041 z m 312.133,-122.944 -44.317,7.002 7.348,10.439 c 4.818,6.849 5.649,15.499 2.215,23.14 v 0 c -3.431,7.641 -10.449,12.769 -18.768,13.716 v 0 l -303.879,34.62 c -2.97,0.339 -5.207,2.845 -5.207,5.835 v 0 130.785 c 0,2.717 1.841,5.064 4.482,5.706 v 0 l 23.031,5.608 v -108.058 c 0,-12.233 9.189,-22.29 21.373,-23.394 v 0 l 320.511,-29.023 v -70.574 c 0,-2.354 -1.288,-3.807 -2.058,-4.465 v 0 c -0.657,-0.562 -1.955,-1.412 -3.778,-1.412 v 0 c -0.303,0 -0.621,0.023 -0.953,0.075 m -129.776,-76.903 -207.102,61.15 c -2.962,0.874 -3.825,3.299 -4.057,4.301 v 0 c -0.233,1.002 -0.531,3.558 1.739,5.651 v 0 l 36.389,33.536 c 1.097,1.011 2.507,1.555 3.969,1.555 v 0 c 0.307,0 0.617,-0.025 0.929,-0.073 v 0 l 222.911,-35.207 -48.31,-68.659 c -1.122,-1.591 -2.927,-2.495 -4.806,-2.495 v 0 c -0.553,0 -1.113,0.079 -1.662,0.241"
                 style="fill:url(#linearGradient1148);stroke:none"
                 id="path1150" />
            </g>
          </g>
        </g>
      </g>
      <g
         id="g1152"
         transform="matrix(0.35277777,0,0,-0.35277777,-1530.8781,1533.8204)">
        <g
           id="g1154">
          <g
             id="g1160">
            <g
               id="g1162">
              <path
                 d="m 4360.672,3778.512 c -12.018,0 -18.022,-6.009 -18.022,-18.021 v 0 -150.804 c 0,-12.017 6.004,-18.021 18.022,-18.021 v 0 h 66.523 c 19.963,0 35.555,4.547 46.778,13.65 v 0 c 11.218,9.096 16.828,21.951 16.828,38.56 v 0 c 0,11.485 -2.96,20.979 -8.877,28.491 v 0 c -5.922,7.509 -14.178,12.762 -24.781,15.769 v 0 c 9.011,3.354 16.076,8.655 21.202,15.902 v 0 c 5.123,7.243 7.686,15.902 7.686,25.972 v 0 c 0,15.196 -5.391,27.074 -16.165,35.647 v 0 c -10.782,8.568 -25.975,12.855 -45.585,12.855 v 0 z m 14.576,-25.708 h 43.202 c 23.144,0 34.717,-8.925 34.717,-26.767 v 0 c 0,-17.848 -11.573,-26.769 -34.717,-26.769 v 0 h -43.202 z m 0,-79.244 h 47.708 c 23.321,0 34.981,-9.367 34.981,-28.092 v 0 c 0,-18.732 -11.66,-28.094 -34.981,-28.094 v 0 h -47.708 z"
                 style="fill:url(#linearGradient1168);stroke:none"
                 id="path1170" />
            </g>
          </g>
        </g>
      </g>
      <g
         id="g1172"
         transform="matrix(0.35277777,0,0,-0.35277777,-1530.8781,1533.8204)">
        <g
           id="g1174">
          <g
             id="g1180">
            <g
               id="g1182">
              <path
                 d="m 4561.96,3769.368 c -13.873,-7.864 -24.515,-18.95 -31.938,-33.26 v 0 c -7.419,-14.313 -11.129,-31.275 -11.129,-50.886 v 0 c 0,-19.613 3.71,-36.621 11.129,-51.02 v 0 c 7.423,-14.401 18.065,-25.533 31.938,-33.395 v 0 c 13.869,-7.862 30.519,-11.792 49.957,-11.792 v 0 c 10.073,0 20.011,1.371 29.818,4.108 v 0 c 9.804,2.737 18.24,6.667 25.309,11.794 v 0 c 4.062,3.003 6.448,6.448 7.157,10.337 v 0 c 0.703,3.882 0.132,7.461 -1.724,10.733 v 0 c -1.856,3.267 -4.638,5.433 -8.35,6.494 v 0 c -3.709,1.059 -7.95,0.086 -12.72,-2.917 v 0 c -5.829,-3.536 -12.017,-6.141 -18.552,-7.819 v 0 c -6.539,-1.68 -13.165,-2.516 -19.877,-2.516 v 0 c -18.907,0 -33.306,5.738 -43.199,17.227 v 0 c -9.898,11.482 -14.843,27.737 -14.843,48.766 v 0 c 0,21.025 4.945,37.236 14.843,48.632 v 0 c 9.893,11.398 24.292,17.094 43.199,17.094 v 0 c 6.535,0 12.987,-0.794 19.346,-2.386 v 0 c 6.362,-1.589 12.28,-4.153 17.758,-7.684 v 0 c 4.77,-3.181 9.098,-4.199 12.987,-3.047 v 0 c 3.884,1.146 6.799,3.445 8.745,6.89 v 0 c 1.942,3.445 2.473,7.243 1.592,11.396 v 0 c -0.888,4.151 -3.625,7.727 -8.218,10.733 v 0 c -7.069,4.592 -15.284,8.126 -24.646,10.601 v 0 c -9.367,2.473 -18.91,3.711 -28.625,3.711 v 0 c -19.438,0 -36.088,-3.934 -49.957,-11.794"
                 style="fill:url(#linearGradient1188);stroke:none"
                 id="path1190" />
            </g>
          </g>
        </g>
      </g>
      <g
         id="g1192"
         transform="matrix(0.35277777,0,0,-0.35277777,-1530.8781,1533.8204)">
        <g
           id="g1194">
          <g
             id="g1200">
            <g
               id="g1202">
              <path
                 d="m 4736.083,3769.368 c -13.87,-7.864 -24.515,-18.95 -31.935,-33.26 v 0 c -7.42,-14.313 -11.131,-31.275 -11.131,-50.886 v 0 c 0,-19.613 3.711,-36.621 11.131,-51.02 v 0 c 7.42,-14.401 18.065,-25.533 31.935,-33.395 v 0 c 13.871,-7.862 30.521,-11.792 49.959,-11.792 v 0 c 10.071,0 20.009,1.371 29.816,4.108 v 0 c 9.806,2.737 18.242,6.667 25.312,11.794 v 0 c 4.061,3.003 6.446,6.448 7.156,10.337 v 0 c 0.701,3.882 0.13,7.461 -1.724,10.733 v 0 c -1.855,3.267 -4.638,5.433 -8.349,6.494 v 0 c -3.711,1.059 -7.951,0.086 -12.721,-2.917 v 0 c -5.831,-3.536 -12.017,-6.141 -18.552,-7.819 v 0 c -6.539,-1.68 -13.165,-2.516 -19.876,-2.516 v 0 c -18.91,0 -33.309,5.738 -43.202,17.227 v 0 c -9.898,11.482 -14.84,27.737 -14.84,48.766 v 0 c 0,21.025 4.942,37.236 14.84,48.632 v 0 c 9.893,11.398 24.292,17.094 43.202,17.094 v 0 c 6.534,0 12.984,-0.794 19.346,-2.386 v 0 c 6.362,-1.589 12.279,-4.153 17.757,-7.684 v 0 c 4.77,-3.181 9.098,-4.199 12.985,-3.047 v 0 c 3.887,1.146 6.801,3.445 8.748,6.89 v 0 c 1.942,3.445 2.473,7.243 1.589,11.396 v 0 c -0.886,4.151 -3.623,7.727 -8.215,10.733 v 0 c -7.069,4.592 -15.285,8.126 -24.649,10.601 v 0 c -9.367,2.473 -18.907,3.711 -28.623,3.711 v 0 c -19.438,0 -36.088,-3.934 -49.959,-11.794"
                 style="fill:url(#linearGradient1208);stroke:none"
                 id="path1210" />
            </g>
          </g>
        </g>
      </g>
    </g>
  </g>
</svg>
