<svg width="358" height="30" viewBox="0 0 358 30" fill="none" xmlns="http://www.w3.org/2000/svg">
<g clip-path="url(#clip0_3599_9847)">
<path d="M24.6849 3.99023H0V28.5158H24.6849V3.99023Z" fill="white"/>
<path d="M19.9483 10.2981C16.1682 15.8772 10.794 23.1643 0.751465 22.5267V4.7417H23.2958C23.2958 4.7417 21.9978 7.20108 19.9483 10.2981Z" fill="#006CB5"/>
<path d="M0.751465 23.9153V27.6727H23.8196V5.06006C23.8196 5.06006 16.487 25.4183 0.751465 23.9153Z" fill="#E3A624"/>
<path d="M8.63123 10.8442C5.51145 10.8442 3.0293 13.3036 3.0293 16.4234C3.0293 18.9966 4.75998 21.1372 7.12827 21.7748C9.92924 20.9095 12.2975 19.3155 14.2332 17.3798C14.347 17.061 14.347 16.7422 14.347 16.4234C14.2332 13.3036 11.751 10.8442 8.63123 10.8442Z" fill="#007EBB"/>
<path d="M12.8212 16.4234C12.8212 18.7916 10.8856 20.5906 8.60834 20.5906C6.24005 20.5906 4.39551 18.655 4.39551 16.4234C4.39551 14.0551 6.33114 12.2561 8.60834 12.2561C10.9994 12.2333 12.8212 14.1689 12.8212 16.4234Z" fill="#5D96C7"/>
<path d="M11.4318 16.424C11.4318 17.927 10.1338 19.2022 8.6308 19.2022C7.12784 19.2022 5.82983 17.927 5.82983 16.424C5.82983 14.921 7.01398 13.6458 8.6308 13.6458C10.1338 13.623 11.4318 14.921 11.4318 16.424Z" fill="#92B2D8"/>
<path d="M10.042 16.4238C10.042 17.1752 9.40438 17.8129 8.63013 17.8129C7.87865 17.8129 7.21826 17.1752 7.21826 16.4238C7.21826 15.6723 7.85588 15.0347 8.63013 15.0347C9.38161 15.0347 10.042 15.6723 10.042 16.4238Z" fill="#C5D3E3"/>
<path d="M38.8036 18.0176H42.4699C43.7679 18.0176 44.6332 18.2226 45.157 18.6553C45.7035 19.0879 45.9085 19.6117 45.9085 20.2721C45.9085 21.0236 45.7035 21.5473 45.157 21.98C44.6104 22.4127 43.7451 22.6176 42.4699 22.6176H38.8036M31.4709 27.5592H43.9728C44.5194 27.5592 45.5896 27.4453 47.2065 27.2403C48.3906 27.1265 49.3698 26.8077 50.0074 26.4889C50.9866 25.9423 51.7381 25.2136 52.2619 24.2344C52.8084 23.278 53.1272 22.2077 53.1272 21.0236C53.1272 19.5206 52.6945 18.3365 51.9431 17.38C51.1916 16.4236 49.8936 15.7632 48.2768 15.3533C49.347 15.0345 50.2124 14.488 50.7589 13.8504C51.6242 12.8939 52.0569 11.7098 52.0569 10.4118C52.0569 8.79495 51.4193 7.40586 50.2351 6.33557C49.051 5.26528 47.3203 4.71875 45.0659 4.71875H31.4709V27.5592ZM38.8036 9.45534H42.0372C43.1075 9.45534 43.859 9.66029 44.2916 10.0019C44.7243 10.4345 44.9293 10.8672 44.9293 11.5048C44.9293 12.2563 44.7243 12.7801 44.2916 13.1217C43.859 13.5543 42.9936 13.6682 41.9233 13.6682H38.8036V9.45534Z" fill="#006CB5"/>
<path d="M62.4185 27.5596V18.3369H63.0561C63.6937 18.3369 64.3541 18.5418 64.7868 18.8834C65.1056 19.2022 65.5383 19.7487 66.0848 20.5913L69.956 27.5596H78.154L74.6015 21.024C74.3966 20.7052 74.055 20.2725 73.6224 19.6349C73.0758 18.9972 72.757 18.5646 72.4382 18.4507C72.0055 18.1319 71.459 17.9042 70.6164 17.5854C71.6867 17.3804 72.5521 17.0388 73.2125 16.72C74.1917 16.1735 74.9431 15.4448 75.4669 14.4656C76.0134 13.5092 76.3322 12.4389 76.3322 11.1409C76.3322 9.63792 76.0134 8.45377 75.2619 7.49734C74.5105 6.54091 73.5313 5.78944 72.3471 5.47063C71.163 5.03796 69.4323 4.83301 67.1778 4.83301H55.1086V27.5368M62.4185 9.34188H65.5383C66.8363 9.34188 67.7016 9.54683 68.2254 9.9795C68.7719 10.4122 68.9768 10.9359 68.9768 11.6874C68.9768 12.2339 68.863 12.6438 68.5442 12.9626C68.2254 13.3953 67.9066 13.6003 67.36 13.7141C66.3808 13.9191 65.7432 14.0329 65.4244 14.0329H62.3957V9.34188H62.4185Z" fill="#006CB5"/>
<path d="M95.5292 27.5588H103.067L94.345 4.85498H86.3748L77.6531 27.5588H85.0995L86.2837 23.8014H94.4817M87.65 18.8826L90.246 10.7302L92.8421 18.8826H87.65Z" fill="#006CB5"/>
<path d="M118.916 18.1311L125.27 19.9529C124.837 21.6608 124.199 23.0499 123.22 24.1202C122.355 25.1905 121.171 26.0558 119.782 26.6934C118.37 27.2399 116.662 27.5588 114.612 27.5588C112.016 27.5588 109.967 27.2399 108.35 26.4885C106.733 25.737 105.321 24.5528 104.137 22.8449C103.067 21.137 102.406 18.8826 102.406 16.1044C102.406 12.4609 103.386 9.68266 105.526 7.74704C107.576 5.81141 110.491 4.85498 114.248 4.85498C117.163 4.85498 119.531 5.40151 121.148 6.56289C122.879 7.74704 124.063 9.45494 124.928 11.7094L118.575 12.9846C118.37 12.347 118.142 11.8005 117.823 11.4817C117.391 10.9351 116.958 10.5252 116.32 10.2975C115.774 9.9787 115.022 9.86484 114.385 9.86484C112.768 9.86484 111.47 10.5025 110.604 11.6866C109.967 12.643 109.625 14.0549 109.625 15.9678C109.625 18.4271 110.058 20.044 110.809 21.0004C111.561 21.8657 112.745 22.3895 114.157 22.3895C115.569 22.3895 116.639 22.0707 117.277 21.3192C118.051 20.5905 118.597 19.5202 118.916 18.1311Z" fill="#006CB5"/>
<path d="M140.367 18.0176H144.033C145.331 18.0176 146.197 18.2226 146.721 18.6553C147.267 19.0879 147.472 19.6117 147.472 20.2721C147.472 21.0236 147.267 21.5473 146.721 21.98C146.174 22.4127 145.309 22.6176 144.125 22.6176H140.458M133.035 27.5592H145.536C146.083 27.5592 147.153 27.4453 148.77 27.2403C149.954 27.1265 150.933 26.8077 151.571 26.4889C152.55 25.9423 153.302 25.2136 153.825 24.2344C154.372 23.278 154.691 22.2077 154.691 21.0236C154.691 19.5206 154.258 18.3365 153.507 17.38C152.755 16.4236 151.457 15.7632 149.726 15.3533C150.797 15.0345 151.662 14.488 152.209 13.8504C153.074 12.8939 153.507 11.7098 153.507 10.4118C153.507 8.79495 152.869 7.40586 151.685 6.33557C150.501 5.26528 148.77 4.71875 146.516 4.71875H132.921V27.5364H133.035V27.5592ZM140.367 9.45534H143.601C144.671 9.45534 145.423 9.66029 145.855 10.0019C146.288 10.3207 146.493 10.8672 146.493 11.5048C146.493 12.2563 146.288 12.7801 145.855 13.1217C145.423 13.5543 144.671 13.6682 143.487 13.6682H140.367V9.45534Z" fill="#006CB5"/>
<path d="M171.52 27.5588H179.058L170.336 4.85498H162.366L153.644 27.5588H161.091L162.275 23.8014H170.473M163.755 18.8826L166.351 10.7302L168.947 18.8826H163.755Z" fill="#006CB5"/>
<path d="M179.512 4.85498H186.298L195.134 17.3796V4.85498H202.034V27.5588H195.134L186.389 15.0341V27.5588H179.489" fill="#006CB5"/>
<path d="M204.949 4.85498H212.168V13.4173L219.705 4.85498H229.406L220.776 13.4173L229.725 27.5588H220.776L215.925 18.245L212.145 22.0024V27.5815H204.949" fill="#006CB5"/>
<path d="M296.242 9.61482C295.81 9.61482 295.377 9.72868 295.172 10.0475C294.739 10.4802 294.739 11.1178 294.739 11.4366V11.7554C294.307 11.2089 293.874 10.799 293.327 10.5712C291.506 9.61482 289.547 10.2524 289.115 10.3663L289.001 10.4802C285.881 8.11186 283.08 10.2752 282.42 10.9128C281.782 10.594 280.484 9.9564 280.37 9.9564H280.484C279.619 9.40987 279.072 9.52373 278.753 9.75145C278.116 10.0703 278.002 10.8217 278.002 11.2544C277.364 10.1841 276.59 9.63759 275.952 9.5465C275.406 9.43264 274.973 9.75145 274.882 9.86531H274.768H274.654C273.675 10.6168 273.151 15.7633 272.833 18.9741C272.4 18.6553 271.762 18.3365 271.216 18.1088C271.648 17.2435 272.081 16.4009 272.286 15.2168C272.286 15.0118 273.038 10.8217 269.918 9.75145C269.485 9.63759 267.754 9.43264 266.479 10.3891C265.5 11.0267 264.976 12.097 264.748 13.4861C264.748 13.4861 264.635 14.989 265.614 15.7405C266.16 16.287 266.912 16.3781 267.777 16.287C267.982 16.287 268.096 16.1732 268.21 15.9682C268.324 15.8544 268.324 15.6494 268.324 15.4217C268.324 15.2168 268.21 15.1029 268.005 14.989C267.891 14.8752 267.686 14.7841 267.458 14.8752C267.14 14.8752 266.707 14.989 266.479 14.6702C266.16 14.4653 266.046 13.9187 266.046 13.5999C266.16 12.6435 266.593 11.9831 267.117 11.5732C267.982 11.0267 268.939 11.0267 269.371 11.1406C270.555 11.5732 270.783 12.8485 270.783 13.9187C270.783 14.2376 270.783 14.5564 270.669 14.8752C270.464 15.9455 270.123 16.8108 269.69 17.5623L269.144 18.1999L269.03 18.3138C267.845 19.589 266.434 19.4979 266.343 19.4979C260.946 18.8603 260.627 9.63759 260.627 9.52373C260.627 9.09106 260.308 8.77225 259.875 8.77225C259.67 8.77225 259.443 8.88611 259.329 8.9772C259.215 9.09106 259.124 9.29601 259.124 9.52373C259.124 9.9564 259.443 20.0217 266.138 20.887C266.456 20.887 268.392 20.887 270.009 19.0652C271.307 19.8167 272.263 20.3405 272.491 20.5682C272.696 20.7731 273.038 20.887 273.242 20.7731C273.561 20.6593 273.789 20.4543 273.789 20.1355C274.108 14.989 274.768 11.0267 275.201 10.7079L275.315 10.594C275.315 10.594 276.18 10.799 277.478 13.8049L277.273 20.6593C277.273 21.092 277.592 21.4108 278.025 21.4108C278.23 21.4108 278.343 21.2969 278.571 21.2058C278.685 21.092 278.776 20.887 278.776 20.6593L278.981 14.2376V13.5772L279.095 11.0039C279.095 10.8901 279.095 10.6851 279.095 10.6851C279.209 10.6851 279.3 10.799 279.414 10.8901C279.846 11.095 280.826 11.5277 281.463 11.8465C281.349 12.1653 281.349 12.4841 281.349 12.8029C281.349 13.8732 281.668 14.7385 282.42 15.3762C282.625 15.5811 282.852 16.0138 283.057 16.4464L283.262 16.8791C283.695 17.5167 283.695 17.7445 283.695 17.7445C283.695 18.0633 283.581 18.7009 283.262 18.8147C282.943 19.0197 282.397 18.8147 281.532 18.3821C281.213 18.1771 280.78 18.2682 280.552 18.587C280.347 18.9058 280.438 19.3385 280.757 19.5435C282.055 20.2949 283.126 20.4999 283.877 19.9761C284.947 19.3385 284.947 17.9494 284.947 17.5167C284.947 17.1979 284.833 16.8791 284.629 16.4464C284.629 16.1276 284.742 15.695 285.061 15.695C285.061 15.695 286.564 15.49 287.543 17.1979C287.657 17.3118 287.748 17.4029 287.862 17.5167C287.862 17.6306 287.748 17.7217 287.748 17.9494C286.997 18.2682 286.45 18.7009 286.245 19.3385C285.699 20.6137 286.45 21.9117 286.45 21.9117L286.883 22.0256C287.521 22.6632 288.181 22.7771 288.614 22.6632C289.798 22.5494 290.435 21.388 290.435 21.388C290.549 21.2741 290.549 21.0692 290.549 20.8415C290.549 20.6365 290.435 20.5226 290.23 20.4088C289.912 20.2038 289.479 20.2949 289.251 20.6137C289.137 20.8187 288.705 21.2514 288.386 21.2514C288.272 21.2514 288.067 21.1375 287.953 21.0464C287.839 20.9325 287.748 20.6137 287.748 20.2949C287.748 20.1811 287.748 19.9761 287.862 19.8623C288.067 19.4296 288.727 18.9969 289.798 18.9058C290.003 18.9058 291.415 18.9058 292.166 19.7712C292.713 20.4088 292.713 21.2741 292.371 22.5494C292.371 22.5494 291.301 25.1226 284.401 23.4147C284.196 23.3008 283.854 23.4147 283.763 23.6197C283.558 23.8246 283.558 24.0523 283.558 24.2573C283.672 24.5761 285.494 30.7929 297.905 28.6523C298.337 28.5384 298.542 28.2196 298.451 27.7869C298.337 27.3543 298.018 27.1493 297.586 27.2404C290.048 28.5157 286.906 26.4889 285.722 25.0998C292.417 26.284 293.692 23.2781 293.806 22.9593C294.352 21.2514 294.124 19.8623 293.373 18.8831C292.189 17.494 290.139 17.494 289.707 17.494C290.253 15.4672 289.912 13.099 289.593 11.8237H289.798C290.117 11.7099 291.528 11.2772 292.713 11.9376C293.578 12.3702 294.216 13.3267 294.534 14.8296L294.739 15.0346V21.4563C294.739 21.889 295.058 22.2078 295.491 22.2078C295.923 22.2078 296.242 21.889 296.242 21.4563V11.5504C296.242 11.4366 296.242 11.2316 296.356 11.2316C297.335 11.4366 298.519 11.6643 298.952 11.8693C299.066 11.9831 299.271 11.9831 299.499 11.9831C299.704 11.9831 299.818 11.7782 299.931 11.6643C300.136 11.3455 299.931 10.9128 299.613 10.7079C298.611 10.0475 296.333 9.72868 296.242 9.61482ZM288.477 15.8316C287.293 14.5564 285.79 14.3286 285.038 14.4425C284.606 14.5564 284.173 14.7613 283.968 15.194L283.854 15.0801L283.74 14.9663C282.761 14.1009 283.194 12.5069 283.308 12.2792V12.1881C283.831 11.7554 285.676 10.1614 287.93 11.7554C288.135 12.393 288.477 13.896 288.477 15.3989C288.477 15.3989 288.477 15.6267 288.477 15.8316ZM357.681 9.84254C355.746 8.5673 354.129 9.40987 353.469 10.0475L353.355 10.2524V10.3663C350.986 9.09106 347.001 9.61482 347.001 9.61482C344.952 9.81977 343.973 10.1614 343.654 10.2524C340.739 9.18215 338.689 10.2524 337.824 10.8901C336.959 10.0247 336.093 9.61482 335.228 9.70591C334.158 9.81977 333.497 10.5712 333.497 10.6623L333.384 10.7762C331.334 8.95443 327.987 9.59205 326.37 10.1386L326.484 9.93363C326.689 9.3871 327.668 6.6089 330.036 5.85743C331.858 5.3109 334.021 5.97129 336.503 7.88414C336.617 7.998 336.822 8.08909 337.05 7.998C337.255 7.998 337.369 7.88414 337.596 7.67919C337.801 7.36038 337.801 6.92771 337.483 6.72276C334.568 4.46833 331.881 3.71685 329.603 4.46833C326.256 5.53862 325.072 9.3871 325.072 9.3871C324.753 10.0247 324.434 11.2089 324.206 12.8257C323.227 10.799 322.271 9.72868 321.405 9.61482C320.859 9.50096 320.54 9.72868 320.335 9.93363H320.221H320.107C319.356 10.5712 318.809 13.5772 318.263 19.0425C317.83 18.8375 317.284 18.4959 316.646 18.1771C317.079 17.4256 317.511 16.4692 317.716 15.2851C317.83 14.5336 318.263 10.7762 315.348 9.81977C315.029 9.70591 313.299 9.50096 311.887 10.4574C310.908 11.095 310.384 12.1653 310.156 13.5544C310.156 13.7593 310.156 15.0573 311.021 15.8088C311.568 16.3554 312.319 16.4464 313.185 16.3554C313.617 16.3554 313.822 15.9227 313.822 15.49C313.822 15.2851 313.708 15.1712 313.504 15.0573C313.39 14.9435 313.185 14.8524 312.957 14.9435C312.638 14.9435 312.206 15.0573 311.978 14.7385C311.545 14.4197 311.545 13.6683 311.545 13.6683C311.659 12.7118 312.092 12.0514 312.615 11.6415C313.481 11.095 314.437 11.095 314.984 11.2089C316.168 11.6415 316.396 13.1445 316.396 13.9871C316.396 14.3059 316.396 14.6247 316.282 14.9435C316.077 16.0138 315.735 16.9702 315.211 17.6306L314.665 18.2682L314.551 18.3821C313.367 19.6573 311.955 19.5662 311.955 19.5662C306.558 18.9286 306.239 9.70591 306.239 9.59205C306.239 9.15938 305.92 8.84057 305.488 8.84057C305.055 8.84057 304.736 9.15938 304.736 9.59205C304.736 10.0247 305.055 20.2038 311.75 20.9553C311.955 20.9553 314.005 20.9553 315.621 19.1336C317.033 19.885 317.876 20.4088 318.103 20.6365C318.308 20.8415 318.65 20.9553 318.855 20.8415C319.174 20.7276 319.401 20.5226 319.401 20.2038C319.72 15.0573 320.472 11.095 320.813 10.7762L320.7 10.8901C320.813 10.8901 320.904 10.7762 321.018 10.7762C321.018 10.7762 321.884 10.9811 323.387 14.4197C323.5 14.6247 323.592 14.7385 323.705 14.7385C323.5 16.3554 323.273 18.2682 323.159 20.3177V20.4316V20.5454C323.159 20.9781 323.478 21.183 323.797 21.2969C324.229 21.2969 324.548 20.9781 324.548 20.6593C324.548 20.5454 324.981 14.8752 325.732 11.5504C325.937 11.4366 329.398 10.1614 331.562 11.2316C330.492 11.9831 328.533 13.2584 327.577 15.0801C327.577 15.0801 327.03 15.8316 327.03 16.788C327.03 16.9019 327.03 16.993 327.03 17.2207C327.144 17.8583 327.463 18.291 328.009 18.6098C328.442 18.9286 331.038 20.7504 332.86 21.2969C333.065 21.4108 333.406 21.2969 333.497 21.183C333.702 21.0692 333.816 20.8642 333.816 20.6365V20.4543C333.816 19.7029 333.816 13.4861 334.568 11.1406C334.682 11.0267 334.886 10.8217 335.205 10.8217C335.524 10.8217 336.071 11.0267 336.617 11.5732C336.503 12.7574 336.185 19.293 336.185 19.6118C336.185 20.3632 336.731 21.6385 338.439 21.6385C339.077 21.5246 342.424 20.887 343.403 19.0652C343.608 18.7464 343.608 18.4276 343.608 17.9949C343.608 17.5623 343.494 17.2435 343.289 16.8108L343.176 16.6059C343.176 16.6059 340.261 13.7138 337.892 12.9623V12.4158V12.097L338.006 11.9831C338.006 11.9831 339.828 9.9564 343.176 11.3455C343.38 11.4594 343.494 11.4594 343.722 11.3455C343.836 11.3455 344.792 10.9128 346.956 10.7079C347.161 10.7079 350.941 10.1613 352.671 11.4594C352.467 12.3247 352.353 13.1673 352.353 14.0326C351.92 13.7138 351.487 13.4861 351.055 13.4861C350.417 13.4861 349.757 13.9187 349.233 14.6702C348.914 14.2376 348.686 13.9187 348.254 13.7138C347.502 13.2811 346.842 13.395 346.523 13.5088H346.409C344.678 13.8277 344.155 16.7197 343.927 18.0177C343.881 20.5454 345.612 20.8642 345.726 20.8642C347.343 20.9781 348.208 19.7939 348.413 19.2474C348.527 18.8147 348.299 18.4959 347.98 18.291C347.548 18.1771 347.229 18.4048 347.001 18.7237C347.001 18.7237 346.682 19.4751 345.817 19.4751C345.703 19.4751 345.384 19.2702 345.498 18.1999C345.703 16.6969 346.25 14.989 346.796 14.989H346.91C346.91 14.989 347.229 14.8752 347.548 15.1029C347.867 15.3078 348.185 15.8544 348.413 16.492C348.527 16.8108 348.732 17.0385 349.051 17.0385C349.37 17.0385 349.688 16.9247 349.802 16.6059C350.007 16.0593 350.668 15.1029 351.214 15.1029C351.533 15.1029 351.852 15.5356 352.284 16.1732L352.398 16.287C352.398 18.2227 352.512 19.8167 352.512 19.8167C352.512 20.2494 352.831 20.4543 353.264 20.4543C353.696 20.4543 353.901 20.1355 353.901 19.7029V19.4751C353.787 18.5187 353.787 17.4484 353.787 16.4692C353.787 13.691 353.992 11.6415 354.539 10.6851C354.744 10.4802 355.518 9.93363 356.793 10.799C356.907 10.9128 357.112 10.9128 357.34 10.9128C357.567 10.9128 357.659 10.799 357.772 10.594C358.114 10.4802 358.023 10.0475 357.681 9.84254ZM332.564 19.7939C330.947 19.0425 329.102 17.7672 329.102 17.6534C328.897 17.5395 328.784 17.3346 328.784 17.1068V17.0157C328.784 16.6969 328.897 16.3781 329.102 16.0593C330.082 14.3514 332.222 12.9623 333.088 12.4158C332.678 14.7613 332.564 18.1999 332.564 19.7939ZM342.265 17.7672C342.379 17.9722 342.379 18.086 342.379 18.3138C342.379 18.4276 342.379 18.6326 342.265 18.7464C341.718 19.7029 339.669 20.3632 338.393 20.5682C337.756 20.5682 337.642 20.2494 337.642 20.0217L337.961 14.8752C339.783 15.3989 341.946 17.4484 342.265 17.7672Z" fill="#006CB5"/>
<path d="M246.075 0.369141H243.798V29.6313H246.075V0.369141Z" fill="#BDBFC1"/>
</g>
<defs>
<clipPath id="clip0_3599_9847">
<rect width="358" height="29.2621" fill="white" transform="translate(0 0.369141)"/>
</clipPath>
</defs>
</svg>
